<svg width="100" height="100" viewBox="0 0 100 100" fill="none" xmlns="http://www.w3.org/2000/svg">
<path d="M25 70.8333C25 62.5 41.6667 57.9167 50 57.9167C58.3333 57.9167 75 62.5 75 70.8333V75H25M62.5 37.5C62.5 40.8152 61.183 43.9946 58.8388 46.3388C56.4946 48.683 53.3152 50 50 50C46.6848 50 43.5054 48.683 41.1612 46.3388C38.817 43.9946 37.5 40.8152 37.5 37.5C37.5 34.1848 38.817 31.0054 41.1612 28.6612C43.5054 26.317 46.6848 25 50 25C53.3152 25 56.4946 26.317 58.8388 28.6612C61.183 31.0054 62.5 34.1848 62.5 37.5ZM12.5 20.8333V79.1667C12.5 81.3768 13.378 83.4964 14.9408 85.0592C16.5036 86.622 18.6232 87.5 20.8333 87.5H79.1667C81.3768 87.5 83.4964 86.622 85.0592 85.0592C86.622 83.4964 87.5 81.3768 87.5 79.1667V20.8333C87.5 18.6232 86.622 16.5036 85.0592 14.9408C83.4964 13.378 81.3768 12.5 79.1667 12.5H20.8333C18.6232 12.5 16.5036 13.378 14.9408 14.9408C13.378 16.5036 12.5 18.6232 12.5 20.8333Z" fill="#A0A6BD"/>
</svg>
